<svg id="svg" version="1.1" xmlns="http://www.w3.org/2000/svg" xmlns:xlink="http://www.w3.org/1999/xlink" width="400" height="432.9704510108865" viewBox="0, 0, 400,432.9704510108865"><g id="svgg"><path id="path0" d="M293.420 106.780 C 274.522 125.680,273.496 126.780,274.421 127.138 C 274.960 127.345,275.831 127.979,276.358 128.545 C 276.885 129.112,277.446 129.495,277.605 129.397 C 277.763 129.299,278.215 129.575,278.609 130.009 C 279.002 130.444,279.667 130.800,280.086 130.800 C 280.504 130.800,280.750 130.958,280.631 131.150 C 280.512 131.343,281.221 131.726,282.207 132.002 C 283.193 132.278,284.000 132.648,284.000 132.823 C 284.000 132.999,284.720 133.460,285.600 133.848 C 286.480 134.236,287.200 134.699,287.200 134.877 C 287.200 135.055,287.560 135.200,288.000 135.200 C 288.440 135.200,288.755 135.421,288.700 135.691 C 288.645 135.960,289.005 136.243,289.500 136.318 C 289.995 136.394,290.400 136.623,290.400 136.828 C 290.400 137.033,290.535 137.181,290.700 137.157 C 291.266 137.075,292.800 137.693,292.800 138.003 C 292.800 138.174,293.257 138.428,293.816 138.568 C 294.375 138.709,294.736 138.979,294.619 139.170 C 294.415 139.500,294.993 139.879,295.755 139.915 C 295.951 139.924,296.221 140.084,296.355 140.270 C 296.490 140.456,297.275 140.962,298.100 141.395 C 298.925 141.828,299.600 142.321,299.600 142.491 C 299.600 142.661,299.863 142.800,300.185 142.800 C 300.506 142.800,301.531 143.565,302.463 144.500 C 303.394 145.435,303.993 145.930,303.793 145.600 C 303.594 145.270,303.985 145.450,304.663 146.000 C 305.341 146.550,305.819 147.135,305.724 147.300 C 305.630 147.465,305.752 147.600,305.995 147.600 C 306.454 147.600,306.730 147.877,310.400 152.027 C 311.610 153.396,312.915 154.849,313.300 155.258 C 313.685 155.666,314.000 156.261,314.000 156.580 C 314.000 156.899,314.225 157.304,314.500 157.480 C 314.775 157.656,315.450 158.700,316.000 159.800 C 316.550 160.900,317.110 161.890,317.244 162.000 C 317.378 162.110,317.809 162.830,318.200 163.600 C 318.591 164.370,319.024 165.090,319.162 165.200 C 319.300 165.310,319.769 166.161,320.206 167.091 C 320.643 168.021,321.181 168.854,321.402 168.941 C 321.880 169.130,321.803 159.043,321.210 143.800 C 320.988 138.080,320.706 129.530,320.584 124.800 C 320.340 115.364,319.128 103.886,318.093 101.200 C 317.966 100.870,317.639 99.700,317.368 98.600 C 317.096 97.500,316.684 95.970,316.453 95.200 C 316.221 94.430,315.810 92.900,315.538 91.800 C 315.265 90.700,314.921 89.710,314.772 89.600 C 314.623 89.490,314.374 88.815,314.218 88.100 C 313.816 86.244,315.156 85.041,293.420 106.780 M20.700 100.289 C 19.435 100.372,18.400 100.591,18.400 100.775 C 18.400 100.959,17.590 101.231,16.600 101.379 C 15.610 101.528,14.800 101.818,14.800 102.025 C 14.800 102.231,14.468 102.400,14.061 102.400 C 13.655 102.400,12.907 102.760,12.400 103.200 C 11.893 103.640,11.316 104.000,11.118 104.000 C 10.464 104.000,3.987 110.911,3.748 111.865 C 3.619 112.379,3.380 112.800,3.217 112.800 C 3.055 112.800,2.606 113.565,2.220 114.500 C 1.834 115.435,1.356 116.513,1.158 116.896 C 0.211 118.728,0.019 124.548,0.075 149.800 C 0.108 164.540,0.205 175.925,0.291 175.100 L 0.448 173.600 38.392 173.600 L 76.336 173.600 76.590 171.100 C 76.895 168.102,76.664 134.058,76.333 133.200 C 76.206 132.870,75.967 132.019,75.803 131.309 C 75.638 130.599,75.255 129.812,74.952 129.560 C 74.648 129.308,74.400 128.937,74.400 128.734 C 74.400 128.031,71.793 124.871,70.645 124.182 C 70.009 123.801,69.186 123.199,68.815 122.845 C 67.457 121.547,65.813 120.400,65.313 120.400 C 65.031 120.400,64.800 120.233,64.800 120.028 C 64.800 119.823,63.990 119.252,63.000 118.757 C 62.010 118.263,61.200 117.730,61.200 117.572 C 61.200 117.415,60.716 117.165,60.124 117.017 C 59.532 116.868,58.735 116.387,58.354 115.947 C 57.973 115.507,57.559 115.154,57.434 115.163 C 56.882 115.200,55.772 114.614,55.480 114.130 C 55.304 113.839,54.892 113.600,54.563 113.600 C 54.235 113.600,53.749 113.417,53.483 113.193 C 51.628 111.628,51.035 111.200,50.721 111.200 C 50.525 111.200,49.880 110.750,49.287 110.200 C 48.693 109.650,47.911 109.200,47.547 109.200 C 47.183 109.200,46.782 108.930,46.655 108.600 C 46.529 108.270,46.149 108.000,45.813 108.000 C 45.476 108.000,45.200 107.823,45.200 107.608 C 45.200 107.392,44.750 107.102,44.200 106.964 C 43.650 106.826,43.200 106.567,43.200 106.388 C 43.200 106.210,42.695 105.953,42.078 105.817 C 41.460 105.681,40.701 105.217,40.389 104.785 C 40.078 104.353,39.548 103.994,39.212 103.986 C 38.875 103.979,37.880 103.625,37.000 103.200 C 36.120 102.775,35.175 102.421,34.900 102.414 C 34.625 102.406,34.400 102.237,34.400 102.038 C 34.400 101.838,33.455 101.546,32.300 101.389 C 31.145 101.232,30.110 100.971,30.000 100.809 C 29.743 100.432,23.692 100.094,20.700 100.289 M77.344 185.200 C 77.344 187.290,77.412 188.145,77.494 187.100 C 77.576 186.055,77.576 184.345,77.494 183.300 C 77.412 182.255,77.344 183.110,77.344 185.200 M260.446 194.100 C 260.421 194.485,260.175 194.800,259.899 194.800 C 259.202 194.800,173.502 280.568,173.850 280.917 C 174.006 281.073,174.418 281.197,174.767 281.194 C 175.322 281.189,175.326 281.140,174.800 280.800 C 174.470 280.587,174.389 280.409,174.620 280.406 C 174.851 280.403,175.214 280.574,175.427 280.787 C 175.870 281.230,177.600 280.885,177.600 280.353 C 177.600 280.159,177.938 280.000,178.351 280.000 C 178.764 280.000,179.320 279.737,179.587 279.415 C 179.854 279.094,180.447 278.712,180.905 278.567 C 181.364 278.421,182.106 277.960,182.555 277.541 C 183.004 277.123,183.601 276.868,183.881 276.976 C 184.161 277.083,184.348 276.953,184.295 276.686 C 184.243 276.419,184.513 276.225,184.896 276.255 C 185.278 276.285,185.493 276.150,185.372 275.955 C 185.173 275.633,185.736 275.432,186.500 275.553 C 186.665 275.579,186.800 275.440,186.800 275.243 C 186.800 275.047,187.505 274.605,188.366 274.260 C 189.227 273.916,190.050 273.443,190.194 273.210 C 190.338 272.977,190.623 272.891,190.828 273.017 C 191.032 273.144,191.200 273.046,191.200 272.800 C 191.200 272.554,191.360 272.451,191.555 272.572 C 191.750 272.693,192.132 272.523,192.404 272.196 C 192.676 271.868,193.146 271.600,193.449 271.600 C 193.752 271.600,194.355 271.245,194.790 270.810 C 195.224 270.376,196.073 269.896,196.676 269.745 C 197.280 269.594,198.129 269.138,198.564 268.733 C 199.000 268.327,199.951 267.780,200.678 267.517 C 201.405 267.254,202.000 266.895,202.000 266.720 C 202.000 266.544,202.270 266.400,202.600 266.400 C 202.930 266.400,203.200 266.234,203.200 266.032 C 203.200 265.829,203.740 265.545,204.400 265.400 C 205.060 265.255,205.600 264.974,205.600 264.776 C 205.600 264.578,206.049 264.303,206.597 264.165 C 207.146 264.027,207.495 263.754,207.374 263.557 C 207.252 263.361,207.496 263.200,207.916 263.200 C 208.336 263.200,209.427 262.659,210.340 261.997 C 211.253 261.336,212.000 260.890,212.000 261.007 C 212.000 261.123,212.419 260.944,212.932 260.608 C 213.444 260.272,213.984 260.118,214.132 260.265 C 214.279 260.413,214.400 260.352,214.400 260.130 C 214.400 259.908,215.030 259.387,215.800 258.972 C 216.570 258.557,217.200 258.079,217.200 257.909 C 217.200 257.739,217.464 257.600,217.788 257.600 C 218.555 257.600,221.600 256.010,221.600 255.610 C 221.600 255.439,222.095 255.196,222.700 255.068 C 223.305 254.941,224.323 254.378,224.962 253.818 C 225.601 253.258,226.366 252.800,226.662 252.800 C 226.958 252.800,227.200 252.620,227.200 252.400 C 227.200 252.180,227.487 252.000,227.837 252.000 C 228.187 252.000,228.931 251.640,229.491 251.200 C 230.050 250.760,230.754 250.400,231.054 250.400 C 231.354 250.400,231.600 250.234,231.600 250.032 C 231.600 249.829,232.128 249.548,232.772 249.406 C 233.417 249.264,234.158 248.892,234.418 248.579 C 234.678 248.265,235.031 248.096,235.203 248.202 C 235.375 248.308,235.619 248.126,235.746 247.798 C 235.872 247.469,236.251 247.200,236.587 247.200 C 236.924 247.200,237.200 247.020,237.200 246.800 C 237.200 246.580,237.457 246.400,237.771 246.400 C 238.086 246.400,238.581 246.175,238.871 245.900 C 239.162 245.625,240.300 244.962,241.400 244.426 C 242.500 243.891,244.300 242.881,245.400 242.182 C 246.500 241.483,247.805 240.784,248.300 240.629 C 248.795 240.473,249.200 240.193,249.200 240.005 C 249.200 239.817,249.740 239.545,250.400 239.400 C 251.060 239.255,251.600 238.983,251.600 238.795 C 251.600 238.428,253.187 237.784,253.730 237.931 C 253.911 237.980,253.972 237.879,253.866 237.706 C 253.759 237.534,254.421 237.037,255.336 236.602 C 256.251 236.168,257.090 235.719,257.200 235.606 C 257.542 235.254,258.958 234.416,259.900 234.009 C 260.395 233.795,260.800 233.447,260.800 233.237 C 260.800 233.026,261.167 232.737,261.616 232.595 C 262.606 232.281,266.399 228.400,266.400 227.700 C 266.400 227.425,266.577 227.200,266.792 227.200 C 267.008 227.200,267.297 226.751,267.435 226.203 C 267.573 225.654,267.846 225.305,268.043 225.426 C 268.239 225.548,268.400 225.277,268.400 224.824 C 268.400 224.371,268.572 224.000,268.782 224.000 C 268.992 224.000,269.288 223.325,269.440 222.500 C 269.591 221.675,269.904 220.878,270.135 220.729 C 270.974 220.186,270.797 205.707,269.958 206.226 C 269.761 206.348,269.600 206.189,269.600 205.874 C 269.600 205.091,268.070 201.691,267.582 201.389 C 267.365 201.255,267.291 200.976,267.419 200.770 C 267.546 200.563,267.369 200.286,267.025 200.154 C 266.681 200.022,266.400 199.665,266.400 199.361 C 266.400 199.056,266.040 198.582,265.600 198.307 C 265.160 198.032,264.800 197.570,264.800 197.280 C 264.800 196.990,264.665 196.835,264.500 196.934 C 264.124 197.162,263.168 196.166,263.471 195.862 C 263.594 195.739,263.223 195.521,262.647 195.376 C 262.054 195.227,261.597 194.829,261.594 194.457 C 261.589 193.922,261.522 193.904,261.234 194.358 C 260.950 194.806,260.843 194.767,260.687 194.158 C 260.518 193.500,260.487 193.492,260.446 194.100 M323.410 278.000 C 323.458 289.110,323.586 298.650,323.695 299.200 C 324.105 301.276,324.497 302.400,324.812 302.400 C 324.990 302.400,325.246 302.895,325.381 303.500 C 325.694 304.908,329.255 309.200,330.111 309.200 C 330.291 309.200,330.855 309.650,331.365 310.200 C 331.875 310.750,332.477 311.200,332.703 311.200 C 332.929 311.200,333.218 311.470,333.345 311.800 C 333.471 312.130,333.921 312.400,334.345 312.400 C 334.768 312.400,335.218 312.670,335.345 313.000 C 335.471 313.330,335.851 313.600,336.187 313.600 C 336.524 313.600,336.800 313.777,336.800 313.992 C 336.800 314.208,337.250 314.498,337.800 314.636 C 338.350 314.774,338.800 315.026,338.800 315.197 C 338.800 315.473,339.608 315.806,340.530 315.910 C 340.712 315.931,341.173 316.307,341.554 316.747 C 341.935 317.187,342.719 317.665,343.295 317.809 C 343.871 317.954,344.439 318.326,344.559 318.636 C 344.678 318.946,345.063 319.200,345.416 319.200 C 345.769 319.200,346.308 319.425,346.615 319.700 C 347.485 320.480,348.054 320.897,350.303 322.400 C 351.456 323.170,352.399 323.921,352.399 324.068 C 352.400 324.216,352.940 324.455,353.600 324.600 C 354.260 324.745,354.800 325.026,354.800 325.224 C 354.800 325.422,355.250 325.698,355.800 325.836 C 356.350 325.974,356.800 326.228,356.800 326.400 C 356.800 326.572,357.209 326.816,357.708 326.941 C 358.207 327.066,359.014 327.540,359.500 327.993 C 359.987 328.446,360.523 328.842,360.692 328.872 C 361.809 329.072,362.400 329.341,362.400 329.647 C 362.400 329.841,362.805 330.006,363.300 330.014 C 363.795 330.021,364.920 330.375,365.800 330.800 C 366.680 331.225,367.769 331.579,368.220 331.586 C 368.671 331.594,369.265 331.825,369.540 332.100 C 370.199 332.759,381.492 332.812,381.915 332.158 C 382.072 331.914,382.875 331.591,383.700 331.440 C 384.525 331.288,385.200 331.014,385.200 330.832 C 385.200 330.649,385.750 330.390,386.423 330.255 C 387.096 330.121,387.902 329.783,388.214 329.505 C 389.349 328.496,391.429 326.755,392.700 325.754 C 393.415 325.190,394.000 324.556,394.000 324.345 C 394.000 324.134,394.450 323.545,395.000 323.035 C 395.550 322.525,396.000 321.917,396.000 321.683 C 396.000 321.449,396.225 321.017,396.500 320.722 C 396.775 320.428,397.358 319.471,397.796 318.594 C 398.234 317.717,398.713 316.909,398.861 316.798 C 399.750 316.130,399.996 308.649,399.937 284.071 C 399.903 269.622,399.751 258.700,399.600 259.800 C 399.449 260.900,399.297 261.395,399.263 260.900 L 399.200 260.000 361.828 260.000 L 324.456 260.000 324.282 259.100 C 324.187 258.605,324.055 259.100,323.989 260.200 L 323.870 262.200 323.596 260.000 C 323.446 258.790,323.362 266.890,323.410 278.000 M78.611 264.170 C 78.014 266.267,79.308 311.470,80.209 319.993 C 80.793 325.519,81.453 329.389,82.600 334.000 C 82.955 335.430,83.350 337.050,83.477 337.600 C 83.604 338.150,83.847 338.780,84.018 339.000 C 84.189 339.220,84.455 340.077,84.610 340.904 C 84.764 341.732,85.035 342.498,85.211 342.607 C 85.386 342.715,85.650 343.513,85.796 344.379 C 86.332 347.548,85.885 347.919,106.993 326.807 C 123.648 310.149,127.063 306.912,127.649 307.226 C 128.036 307.434,128.447 307.447,128.565 307.257 C 128.857 306.784,128.409 306.400,127.567 306.400 C 127.182 306.400,126.776 306.175,126.665 305.900 C 126.504 305.500,126.457 305.500,126.432 305.900 C 126.414 306.175,126.220 306.400,126.000 306.400 C 125.780 306.400,125.645 306.186,125.700 305.924 C 125.755 305.662,125.440 305.374,125.000 305.285 C 124.560 305.196,124.020 304.949,123.800 304.737 C 123.541 304.488,123.682 304.436,124.200 304.589 C 124.665 304.726,124.581 304.615,124.000 304.323 C 123.450 304.048,122.890 303.667,122.755 303.477 C 122.621 303.287,122.399 303.141,122.263 303.152 C 121.824 303.188,119.605 301.810,119.603 301.500 C 119.601 301.335,119.334 301.200,119.009 301.200 C 118.349 301.200,113.917 298.892,113.592 298.379 C 113.385 298.052,111.703 297.316,111.070 297.274 C 110.888 297.262,110.427 296.893,110.046 296.453 C 109.665 296.013,108.876 295.534,108.293 295.388 C 107.710 295.241,107.023 294.869,106.767 294.561 C 106.511 294.252,106.043 294.000,105.727 294.000 C 105.411 294.000,105.264 293.820,105.400 293.600 C 105.536 293.380,105.271 293.200,104.811 293.200 C 104.351 293.200,103.871 292.930,103.745 292.600 C 103.618 292.270,103.264 292.000,102.957 292.000 C 102.651 292.000,102.400 291.862,102.400 291.694 C 102.400 291.526,101.512 290.967,100.426 290.452 C 99.341 289.937,98.357 289.264,98.239 288.957 C 98.121 288.651,97.805 288.400,97.536 288.400 C 97.267 288.400,96.375 287.680,95.555 286.800 C 94.734 285.920,93.945 285.200,93.802 285.200 C 93.659 285.200,92.880 284.448,92.071 283.528 C 91.262 282.609,89.912 281.134,89.071 280.250 C 88.230 279.367,87.066 277.824,86.485 276.822 C 85.903 275.820,85.241 274.807,85.014 274.571 C 84.786 274.334,84.240 273.434,83.800 272.571 C 83.360 271.707,82.865 270.940,82.700 270.867 C 82.535 270.793,82.400 270.478,82.400 270.167 C 82.400 269.855,82.234 269.600,82.032 269.600 C 81.829 269.600,81.545 269.060,81.400 268.400 C 81.255 267.740,80.985 267.200,80.800 267.200 C 80.615 267.200,80.345 266.660,80.200 266.000 C 80.055 265.340,79.783 264.800,79.596 264.800 C 79.409 264.800,79.186 264.395,79.100 263.900 C 78.958 263.078,78.916 263.101,78.611 264.170 " stroke="none" fill="#9e1c1d" fill-rule="evenodd"></path><path id="path1" d="M265.973 79.022 C 240.626 104.362,238.461 106.427,237.424 106.239 C 236.807 106.127,236.419 106.152,236.562 106.296 C 236.706 106.439,237.130 106.601,237.504 106.656 C 237.879 106.711,238.251 106.954,238.332 107.195 C 238.434 107.502,238.653 107.488,239.061 107.149 C 239.525 106.764,239.620 106.775,239.523 107.200 C 239.455 107.494,239.804 107.945,240.298 108.203 C 240.791 108.461,241.076 108.790,240.931 108.936 C 240.786 109.081,241.032 109.200,241.479 109.200 C 241.926 109.200,242.750 109.560,243.309 110.000 C 243.869 110.440,244.514 110.800,244.742 110.800 C 244.971 110.800,245.646 111.252,246.242 111.804 C 246.838 112.356,247.411 112.722,247.516 112.617 C 247.621 112.512,248.157 112.780,248.708 113.213 C 249.258 113.646,250.054 114.000,250.478 114.000 C 250.901 114.000,251.136 114.180,251.000 114.400 C 250.864 114.620,251.113 114.800,251.553 114.800 C 251.993 114.800,252.461 114.974,252.592 115.187 C 252.724 115.400,253.725 115.984,254.816 116.485 C 255.907 116.986,256.800 117.542,256.800 117.721 C 256.800 117.901,256.980 117.936,257.200 117.800 C 257.420 117.664,257.600 117.718,257.600 117.921 C 257.600 118.123,258.455 118.719,259.500 119.244 C 260.545 119.770,261.490 120.300,261.600 120.422 C 261.710 120.545,262.560 121.015,263.489 121.467 C 264.418 121.919,265.085 122.382,264.970 122.496 C 264.745 122.721,266.790 123.379,267.330 123.256 C 267.511 123.214,267.545 123.365,267.406 123.590 C 267.267 123.816,267.433 124.000,267.776 124.000 C 268.119 124.000,268.400 124.191,268.400 124.424 C 268.400 124.657,268.568 124.744,268.772 124.617 C 268.977 124.491,269.258 124.570,269.396 124.793 C 269.534 125.017,270.042 125.203,270.524 125.206 C 271.157 125.211,271.252 125.306,270.866 125.551 C 270.467 125.804,270.564 125.950,271.252 126.129 C 271.784 126.269,272.301 126.165,272.480 125.885 C 272.678 125.572,272.790 125.710,272.794 126.273 C 272.798 126.825,273.131 127.249,273.700 127.427 C 274.195 127.581,274.690 127.819,274.800 127.954 C 274.910 128.089,275.450 128.450,276.000 128.757 L 277.000 129.313 276.200 128.411 C 275.760 127.914,274.960 127.340,274.421 127.134 C 273.497 126.781,274.541 125.661,293.420 106.780 C 315.171 85.025,313.852 86.204,314.226 88.200 C 314.371 88.970,314.636 89.600,314.817 89.600 C 316.968 89.600,302.598 61.653,297.822 56.549 C 297.590 56.301,297.130 55.702,296.800 55.218 C 296.250 54.411,293.669 51.599,293.481 51.601 C 293.436 51.601,281.058 63.941,265.973 79.022 M315.429 91.600 C 315.573 92.370,315.859 93.270,316.063 93.600 C 316.310 93.999,316.346 93.730,316.171 92.800 C 316.027 92.030,315.741 91.130,315.537 90.800 C 315.290 90.401,315.254 90.670,315.429 91.600 M316.412 95.000 C 316.412 95.440,316.587 96.070,316.800 96.400 C 317.121 96.897,317.188 96.862,317.188 96.200 C 317.188 95.760,317.013 95.130,316.800 94.800 C 316.479 94.303,316.412 94.338,316.412 95.000 M317.600 99.710 C 317.600 100.283,317.787 100.868,318.016 101.010 C 318.289 101.179,318.338 100.877,318.160 100.134 C 317.792 98.601,317.600 98.456,317.600 99.710 M318.684 104.200 C 318.809 105.300,319.055 106.560,319.230 107.000 L 319.549 107.800 319.536 107.000 C 319.529 106.560,319.283 105.300,318.990 104.200 L 318.456 102.200 318.684 104.200 M319.881 112.000 C 320.004 113.650,320.171 115.075,320.252 115.167 C 320.531 115.481,320.354 112.201,320.006 110.600 C 319.748 109.414,319.716 109.776,319.881 112.000 M320.531 119.000 C 320.533 120.540,320.605 121.121,320.692 120.291 C 320.779 119.461,320.777 118.201,320.689 117.491 C 320.600 116.781,320.529 117.460,320.531 119.000 M320.960 134.600 C 320.961 137.900,321.022 139.197,321.098 137.482 C 321.173 135.767,321.172 133.067,321.097 131.482 C 321.021 129.897,320.959 131.300,320.960 134.600 M321.340 144.000 C 321.340 145.870,321.409 146.635,321.493 145.700 C 321.577 144.765,321.577 143.235,321.493 142.300 C 321.409 141.365,321.340 142.130,321.340 144.000 M321.744 163.600 C 321.744 165.690,321.812 166.545,321.894 165.500 C 321.976 164.455,321.976 162.745,321.894 161.700 C 321.812 160.655,321.744 161.510,321.744 163.600 M76.465 172.300 L 76.400 173.600 38.456 173.600 L 0.511 173.600 0.259 175.700 C 0.120 176.855,0.036 183.290,0.073 190.000 C 0.109 196.710,0.256 201.030,0.400 199.600 C 0.544 198.170,0.693 197.495,0.731 198.100 L 0.800 199.200 38.637 199.200 L 76.475 199.200 76.732 198.300 C 76.946 197.549,77.034 197.665,77.264 199.000 C 77.416 199.880,77.441 196.640,77.319 191.800 C 77.069 181.889,76.563 170.326,76.465 172.300 M239.465 181.774 C 239.300 182.205,239.366 182.345,239.652 182.168 C 239.895 182.018,219.778 202.217,194.947 227.056 C 170.116 251.894,149.684 272.169,149.542 272.111 C 149.141 271.946,148.799 273.131,149.054 273.798 C 149.181 274.126,149.432 274.304,149.613 274.192 C 149.794 274.080,150.058 274.354,150.200 274.800 C 150.342 275.246,150.612 275.516,150.800 275.400 C 150.988 275.284,151.248 275.522,151.378 275.930 C 151.507 276.338,152.060 276.911,152.607 277.204 C 153.153 277.496,153.600 277.880,153.600 278.056 C 153.600 278.233,154.500 278.765,155.600 279.238 C 156.700 279.711,157.600 280.256,157.600 280.449 C 157.600 280.642,157.735 280.770,157.900 280.734 C 158.355 280.635,160.510 281.200,161.295 281.624 C 161.677 281.831,162.592 282.000,163.328 282.000 C 164.064 282.000,164.802 282.135,164.966 282.300 C 165.554 282.888,170.353 282.743,170.124 282.145 C 170.009 281.845,170.114 281.600,170.357 281.600 C 170.601 281.600,170.800 281.811,170.800 282.070 C 170.800 282.328,171.260 282.107,171.822 281.579 C 172.724 280.732,172.811 280.712,172.563 281.409 C 172.341 282.035,172.388 282.102,172.790 281.731 C 173.069 281.473,173.591 281.365,173.949 281.490 C 174.484 281.677,174.509 281.620,174.090 281.169 C 173.552 280.590,258.786 194.800,259.899 194.800 C 260.993 194.800,260.336 193.348,258.900 192.592 C 258.075 192.157,257.162 191.576,256.871 191.301 C 256.581 191.025,256.086 190.800,255.771 190.800 C 255.457 190.800,255.200 190.620,255.200 190.400 C 255.200 190.180,255.065 190.021,254.900 190.047 C 254.185 190.160,253.488 189.979,253.725 189.741 C 253.868 189.599,253.100 189.073,252.019 188.572 C 250.939 188.072,248.937 186.920,247.571 186.012 C 246.204 185.105,244.891 184.326,244.653 184.281 C 244.236 184.203,243.954 184.010,242.614 182.884 C 242.141 182.487,242.000 182.481,242.000 182.861 C 242.000 183.131,241.736 183.004,241.413 182.576 C 240.961 181.980,240.819 181.939,240.799 182.400 C 240.782 182.778,240.577 182.649,240.247 182.053 C 239.797 181.242,239.685 181.202,239.465 181.774 M322.731 235.800 C 322.998 249.270,323.487 261.621,323.765 261.899 C 323.894 262.028,324.025 261.248,324.054 260.167 C 324.084 259.085,324.187 258.605,324.282 259.100 L 324.456 260.000 361.828 260.000 L 399.200 260.000 399.256 260.900 C 399.514 265.019,399.917 254.950,399.901 244.800 C 399.889 237.870,399.805 232.695,399.713 233.300 L 399.547 234.400 361.806 234.400 C 341.049 234.400,323.787 234.507,323.446 234.638 C 322.916 234.841,322.806 234.253,322.684 230.538 C 322.605 228.152,322.626 230.520,322.731 235.800 M78.046 265.900 C 78.096 268.341,78.272 268.102,78.489 265.300 C 78.562 264.365,78.481 263.600,78.311 263.600 C 78.140 263.600,78.021 264.635,78.046 265.900 M148.446 271.487 C 148.418 271.781,148.122 271.870,147.700 271.710 C 147.049 271.463,147.050 271.495,147.719 272.170 C 148.539 272.997,148.959 272.805,148.682 271.731 C 148.578 271.329,148.472 271.219,148.446 271.487 M184.100 276.446 C 182.737 277.319,182.295 277.906,183.500 277.243 C 184.418 276.739,185.856 275.627,185.600 275.619 C 185.490 275.616,184.815 275.988,184.100 276.446 M78.540 284.800 C 78.540 286.670,78.609 287.435,78.693 286.500 C 78.777 285.565,78.777 284.035,78.693 283.100 C 78.609 282.165,78.540 282.930,78.540 284.800 M78.942 295.800 C 78.941 297.780,79.008 298.640,79.092 297.712 C 79.176 296.784,79.177 295.164,79.095 294.112 C 79.012 293.060,78.943 293.820,78.942 295.800 M106.993 326.807 C 91.609 342.193,86.920 346.665,86.519 346.333 C 85.796 345.733,85.843 346.410,86.655 348.286 C 87.016 349.119,87.448 350.160,87.615 350.600 C 90.729 358.779,100.570 375.112,105.629 380.498 L 107.412 382.396 135.175 354.622 C 158.168 331.620,162.856 326.749,162.458 326.270 C 162.195 325.952,160.813 325.095,159.389 324.364 C 157.965 323.634,156.800 322.907,156.800 322.750 C 156.800 322.592,156.248 322.342,155.573 322.194 C 154.898 322.046,154.249 321.672,154.130 321.362 C 154.012 321.053,153.664 320.800,153.357 320.800 C 153.051 320.800,152.800 320.620,152.800 320.400 C 152.800 320.180,152.655 320.045,152.478 320.100 C 152.081 320.223,149.050 318.713,148.867 318.300 C 148.793 318.135,148.500 318.000,148.216 318.000 C 147.931 318.000,147.483 317.742,147.221 317.426 C 146.959 317.110,146.217 316.736,145.572 316.594 C 144.928 316.452,144.400 316.171,144.400 315.968 C 144.400 315.766,144.208 315.600,143.973 315.600 C 143.739 315.600,142.958 315.151,142.238 314.602 C 141.518 314.053,140.810 313.723,140.665 313.869 C 140.519 314.014,140.400 313.963,140.400 313.754 C 140.400 313.545,139.185 312.750,137.700 311.987 C 136.215 311.224,134.940 310.465,134.867 310.300 C 134.793 310.135,134.500 310.000,134.216 310.000 C 133.931 310.000,133.472 309.728,133.196 309.395 C 132.919 309.062,132.492 308.813,132.247 308.842 C 130.988 308.991,130.580 308.802,131.200 308.359 C 131.690 308.009,131.646 307.964,130.963 308.111 C 130.422 308.228,129.949 308.011,129.630 307.499 C 129.278 306.935,129.010 306.830,128.706 307.134 C 128.439 307.401,128.026 307.428,127.612 307.206 C 127.075 306.919,123.099 310.698,106.993 326.807 M79.346 311.400 C 79.347 313.600,79.414 314.449,79.495 313.287 C 79.576 312.124,79.576 310.324,79.493 309.287 C 79.411 308.249,79.345 309.200,79.346 311.400 M79.647 318.233 C 79.673 319.535,79.831 321.140,79.997 321.800 C 80.164 322.461,80.208 321.472,80.094 319.600 C 79.855 315.640,79.579 314.796,79.647 318.233 M80.679 326.400 C 81.044 329.033,81.623 330.635,81.330 328.200 C 81.198 327.100,80.941 325.840,80.759 325.400 C 80.561 324.918,80.529 325.316,80.679 326.400 M163.200 326.708 C 163.200 326.894,163.440 327.375,163.733 327.776 C 164.121 328.306,164.267 328.350,164.267 327.935 C 164.267 327.622,164.027 327.141,163.733 326.867 C 163.440 326.593,163.200 326.521,163.200 326.708 M81.844 332.200 C 82.173 333.671,82.402 333.990,82.394 332.967 C 82.391 332.545,82.205 331.930,81.982 331.600 C 81.685 331.162,81.648 331.324,81.844 332.200 M82.834 336.400 C 82.846 336.730,83.011 337.360,83.200 337.800 L 83.544 338.600 83.566 337.800 C 83.578 337.360,83.413 336.730,83.200 336.400 C 82.855 335.867,82.815 335.867,82.834 336.400 M83.826 339.800 C 84.257 341.634,84.885 342.472,84.575 340.800 C 84.433 340.030,84.142 339.220,83.930 339.000 C 83.680 338.742,83.643 339.025,83.826 339.800 M84.818 342.820 C 84.828 343.139,85.096 343.940,85.413 344.600 L 85.990 345.800 85.753 344.400 C 85.510 342.967,84.784 341.740,84.818 342.820 " stroke="none" fill="#b01c24" fill-rule="evenodd"></path><path id="path2" d="M269.706 34.098 C 269.859 34.498,260.894 43.713,241.930 62.645 C 211.485 93.040,211.916 92.582,213.293 93.050 C 213.792 93.220,214.348 93.318,214.530 93.269 C 214.711 93.220,214.744 93.367,214.603 93.596 C 214.458 93.830,215.222 94.418,216.356 94.943 C 217.462 95.456,218.600 96.060,218.884 96.285 C 219.168 96.511,220.750 97.394,222.400 98.248 C 224.050 99.102,225.490 99.890,225.600 100.000 C 225.810 100.210,227.243 101.020,229.600 102.262 C 230.370 102.668,231.090 103.092,231.200 103.204 C 231.310 103.317,232.345 103.842,233.500 104.373 C 234.655 104.903,235.600 105.486,235.600 105.668 C 235.600 105.851,235.848 106.000,236.151 106.000 C 236.454 106.000,236.926 106.270,237.200 106.600 C 237.474 106.930,237.890 107.200,238.125 107.200 C 238.361 107.200,238.204 106.930,237.776 106.599 C 237.069 106.051,237.065 106.021,237.736 106.256 C 238.320 106.460,244.190 100.798,265.979 79.018 L 293.486 51.522 294.843 52.930 C 295.589 53.704,296.470 54.734,296.800 55.218 C 297.130 55.702,297.591 56.301,297.824 56.549 C 298.525 57.295,302.150 62.803,303.979 65.900 C 306.003 69.328,306.652 69.821,304.785 66.512 C 300.950 59.717,296.434 53.630,290.998 47.929 C 289.104 45.944,287.600 44.020,287.600 43.583 C 287.600 43.152,287.330 42.800,287.000 42.800 C 286.670 42.800,286.400 42.609,286.400 42.376 C 286.400 42.143,286.239 42.052,286.042 42.174 C 285.845 42.296,285.571 42.101,285.432 41.740 C 285.294 41.380,285.079 41.187,284.955 41.311 C 284.831 41.436,283.800 40.986,282.665 40.313 C 281.529 39.639,279.970 38.734,279.200 38.301 C 278.430 37.869,277.575 37.332,277.300 37.108 C 277.025 36.885,276.794 36.859,276.787 37.051 C 276.780 37.243,276.552 37.130,276.279 36.800 C 275.645 36.032,274.173 35.200,273.448 35.200 C 273.139 35.200,272.775 34.911,272.639 34.558 C 272.493 34.176,272.140 34.014,271.768 34.157 C 271.424 34.289,270.768 34.197,270.310 33.952 C 269.628 33.587,269.519 33.613,269.706 34.098 M320.493 115.200 C 320.493 115.970,320.575 116.285,320.676 115.900 C 320.776 115.515,320.776 114.885,320.676 114.500 C 320.575 114.115,320.493 114.430,320.493 115.200 M320.957 123.600 C 320.957 126.570,321.020 127.785,321.097 126.300 C 321.174 124.815,321.174 122.385,321.097 120.900 C 321.020 119.415,320.957 120.630,320.957 123.600 M321.331 138.200 C 321.333 139.740,321.405 140.321,321.492 139.491 C 321.579 138.661,321.577 137.401,321.489 136.691 C 321.400 135.981,321.329 136.660,321.331 138.200 M321.740 156.800 C 321.740 158.670,321.809 159.435,321.893 158.500 C 321.977 157.565,321.977 156.035,321.893 155.100 C 321.809 154.165,321.740 154.930,321.740 156.800 M322.150 165.000 C 322.151 167.420,322.216 168.358,322.296 167.085 C 322.376 165.812,322.375 163.832,322.294 162.685 C 322.214 161.538,322.149 162.580,322.150 165.000 M224.947 173.500 C 225.126 173.798,225.036 174.000,224.724 174.000 C 224.437 174.000,206.336 191.865,184.501 213.699 C 148.323 249.876,144.796 253.292,144.754 252.199 C 144.711 251.076,144.681 251.102,144.278 252.600 C 143.752 254.557,143.849 263.609,144.401 264.161 C 144.621 264.381,144.802 264.929,144.804 265.380 C 144.806 265.831,145.248 267.145,145.786 268.300 C 146.323 269.455,146.641 270.400,146.493 270.400 C 146.344 270.400,146.625 270.682,147.118 271.027 C 147.610 271.372,147.907 271.867,147.777 272.127 C 147.647 272.387,147.845 272.240,148.217 271.800 C 148.875 271.020,148.887 271.030,148.684 272.192 C 148.491 273.298,148.517 273.329,149.038 272.616 C 149.347 272.193,149.600 271.941,149.600 272.055 C 149.600 272.170,169.960 251.932,194.845 227.081 C 228.418 193.554,240.180 182.040,240.439 182.449 C 240.631 182.752,240.791 182.805,240.794 182.567 C 240.804 181.827,240.298 181.586,239.728 182.060 C 239.296 182.418,239.235 182.375,239.434 181.857 C 239.605 181.410,239.473 181.200,239.019 181.200 C 238.653 181.200,238.464 181.380,238.600 181.600 C 238.736 181.820,238.637 182.000,238.381 182.000 C 238.124 182.000,238.007 181.759,238.120 181.464 C 238.383 180.778,237.888 179.972,237.138 179.861 C 236.817 179.814,236.133 179.383,235.617 178.902 C 235.101 178.421,234.567 178.097,234.431 178.181 C 234.294 178.265,233.133 177.629,231.851 176.767 C 230.568 175.905,229.267 175.200,228.960 175.200 C 228.652 175.200,228.400 175.041,228.400 174.847 C 228.400 174.487,226.881 173.866,226.258 173.971 C 226.070 174.002,225.630 173.797,225.281 173.514 C 224.797 173.122,224.718 173.118,224.947 173.500 M0.256 202.000 C 0.085 204.750,0.003 209.430,0.073 212.400 L 0.200 217.800 38.900 217.894 L 77.600 217.988 77.594 209.494 C 77.591 204.822,77.440 201.233,77.260 201.517 C 77.075 201.809,76.992 201.022,77.071 199.717 C 77.178 197.945,77.118 197.612,76.818 198.300 L 76.426 199.200 38.639 199.200 L 0.853 199.200 0.710 198.100 C 0.631 197.495,0.427 199.250,0.256 202.000 M399.692 214.300 L 399.600 215.600 361.040 215.600 L 322.480 215.600 322.645 225.072 C 322.736 230.282,322.853 234.557,322.905 234.572 C 322.957 234.587,340.222 234.553,361.272 234.496 L 399.543 234.392 399.793 232.296 C 399.930 231.143,399.983 226.330,399.912 221.600 C 399.841 216.870,399.742 213.585,399.692 214.300 M77.714 265.800 C 77.717 266.900,77.795 267.303,77.887 266.695 C 77.979 266.086,77.977 265.186,77.882 264.695 C 77.787 264.203,77.711 264.700,77.714 265.800 M78.144 271.600 C 78.144 273.690,78.212 274.545,78.294 273.500 C 78.376 272.455,78.376 270.745,78.294 269.700 C 78.212 268.655,78.144 269.510,78.144 271.600 M78.534 290.800 C 78.534 292.450,78.605 293.125,78.691 292.300 C 78.778 291.475,78.778 290.125,78.691 289.300 C 78.605 288.475,78.534 289.150,78.534 290.800 M78.963 305.600 C 78.963 309.230,79.023 310.715,79.098 308.900 C 79.172 307.085,79.172 304.115,79.098 302.300 C 79.023 300.485,78.963 301.970,78.963 305.600 M79.293 316.400 C 79.293 317.170,79.375 317.485,79.476 317.100 C 79.576 316.715,79.576 316.085,79.476 315.700 C 79.375 315.315,79.293 315.630,79.293 316.400 M135.200 354.513 L 107.400 382.427 105.909 380.738 C 105.089 379.809,104.321 379.146,104.202 379.264 C 104.084 379.383,105.955 381.601,108.360 384.193 C 110.937 386.971,112.648 389.132,112.524 389.454 C 112.403 389.768,112.573 390.000,112.924 390.000 C 113.259 390.000,113.593 390.146,113.667 390.325 C 113.740 390.504,114.790 391.195,116.000 391.859 C 117.210 392.524,118.830 393.413,119.600 393.834 C 120.370 394.255,121.090 394.703,121.200 394.829 C 121.488 395.159,122.946 395.738,123.300 395.664 C 123.465 395.629,123.600 395.772,123.600 395.981 C 123.600 396.191,124.275 396.672,125.100 397.049 C 125.925 397.427,126.843 397.923,127.140 398.151 C 127.438 398.379,127.888 398.600,128.140 398.643 C 129.429 398.861,130.801 399.655,131.210 400.419 C 131.508 400.975,131.930 401.207,132.413 401.081 C 132.882 400.958,133.223 401.129,133.333 401.543 C 133.488 402.128,133.512 402.124,133.554 401.514 C 133.579 401.137,133.218 400.624,132.752 400.374 C 132.156 400.055,131.984 400.051,132.175 400.360 C 132.325 400.602,132.287 400.800,132.091 400.800 C 131.895 400.800,131.500 400.361,131.213 399.824 C 130.704 398.873,131.420 398.120,159.288 370.277 C 175.017 354.562,188.124 341.625,188.414 341.529 C 189.235 341.255,188.522 340.490,187.167 340.193 C 186.494 340.045,186.053 339.814,186.187 339.679 C 186.322 339.545,185.897 339.157,185.243 338.818 C 184.590 338.478,182.558 337.368,180.728 336.350 C 176.796 334.165,172.955 332.054,171.706 331.394 C 171.214 331.134,170.929 330.804,171.073 330.661 C 171.216 330.517,171.008 330.400,170.611 330.400 C 170.214 330.400,169.011 329.860,167.938 329.200 C 165.968 327.988,164.946 327.666,165.400 328.400 C 165.536 328.620,165.457 328.800,165.224 328.800 C 164.991 328.800,164.800 328.530,164.800 328.200 C 164.800 327.870,164.609 327.600,164.376 327.600 C 164.143 327.600,164.064 327.780,164.200 328.000 C 164.336 328.220,164.352 328.400,164.236 328.400 C 164.120 328.400,163.795 327.995,163.513 327.500 C 163.021 326.638,161.839 327.766,135.200 354.513 M95.200 366.179 C 95.200 366.570,100.314 374.400,100.569 374.400 C 100.740 374.400,95.850 366.516,95.398 366.065 C 95.289 365.956,95.200 366.007,95.200 366.179 M101.123 375.400 C 101.355 375.840,102.113 376.830,102.808 377.600 L 104.072 379.000 102.765 377.200 C 101.164 374.996,100.564 374.338,101.123 375.400 " stroke="none" fill="#bf1c24" fill-rule="evenodd"></path><path id="path3" d="M191.601 0.440 C 190.612 0.633,189.742 0.974,189.668 1.196 C 189.594 1.418,189.178 1.600,188.743 1.600 C 188.308 1.600,188.063 1.778,188.197 1.995 C 188.332 2.213,188.191 2.295,187.885 2.177 C 187.579 2.060,187.099 2.240,186.819 2.577 C 186.539 2.915,186.150 3.093,185.955 2.972 C 185.760 2.851,185.600 2.931,185.600 3.149 C 185.600 3.559,184.054 4.227,183.470 4.069 C 183.289 4.020,183.255 4.165,183.394 4.390 C 183.533 4.616,183.502 4.814,183.324 4.831 C 182.241 4.933,181.449 5.195,181.240 5.519 C 181.108 5.724,180.550 6.032,180.000 6.203 C 179.450 6.374,178.695 6.865,178.321 7.294 C 177.948 7.723,177.480 7.973,177.282 7.851 C 177.083 7.728,176.541 7.981,176.077 8.414 C 175.613 8.846,175.070 9.200,174.871 9.200 C 174.671 9.200,174.034 9.573,173.454 10.029 C 172.874 10.485,172.400 10.733,172.400 10.580 C 172.400 10.427,172.158 10.503,171.863 10.748 C 171.568 10.993,171.179 11.060,170.999 10.897 C 170.819 10.733,170.793 10.812,170.942 11.071 C 171.170 11.469,169.701 12.314,169.270 12.032 C 169.198 11.986,168.820 12.316,168.429 12.766 C 168.038 13.217,167.602 13.469,167.459 13.326 C 167.317 13.183,167.200 13.277,167.200 13.533 C 167.200 13.790,167.007 14.000,166.771 14.000 C 166.536 14.000,166.071 14.272,165.739 14.604 C 165.407 14.936,164.969 15.104,164.765 14.978 C 164.561 14.852,164.286 15.031,164.154 15.375 C 164.022 15.719,163.691 16.000,163.418 16.000 C 163.146 16.000,162.507 16.360,162.000 16.800 C 161.493 17.240,160.745 17.600,160.339 17.600 C 159.932 17.600,159.600 17.780,159.600 18.000 C 159.600 18.220,159.330 18.400,159.000 18.400 C 158.670 18.400,158.400 18.610,158.400 18.867 C 158.400 19.123,158.283 19.217,158.141 19.074 C 157.998 18.931,157.559 19.186,157.166 19.639 C 156.773 20.092,156.155 20.507,155.794 20.560 C 155.432 20.613,155.015 20.834,154.868 21.051 C 154.721 21.268,154.021 21.680,153.313 21.966 C 152.606 22.252,151.803 22.755,151.530 23.085 C 151.075 23.633,149.212 24.541,148.845 24.394 C 148.759 24.360,148.579 24.491,148.445 24.685 C 148.011 25.311,145.600 26.866,145.588 26.527 C 145.581 26.347,145.392 26.515,145.168 26.900 C 144.944 27.285,144.499 27.600,144.180 27.600 C 143.861 27.600,143.600 27.760,143.600 27.957 C 143.600 28.153,143.105 28.435,142.500 28.584 C 141.494 28.831,139.600 30.540,139.600 31.201 C 139.600 31.353,139.244 31.888,138.808 32.390 C 138.373 32.892,138.113 33.460,138.232 33.652 C 138.350 33.843,138.273 34.000,138.059 34.000 C 137.845 34.000,137.722 34.315,137.784 34.700 C 137.846 35.085,137.807 35.554,137.699 35.742 C 137.380 36.294,137.237 41.624,137.546 41.433 C 137.702 41.337,137.860 41.831,137.898 42.529 C 138.006 44.503,138.457 46.400,138.818 46.400 C 139.175 46.400,139.813 47.997,139.669 48.530 C 139.620 48.711,139.765 48.745,139.990 48.606 C 140.216 48.467,140.400 48.625,140.400 48.958 C 140.400 49.291,140.858 50.022,141.418 50.582 C 141.978 51.142,142.303 51.600,142.139 51.600 C 141.976 51.600,142.598 52.156,143.521 52.835 C 144.445 53.514,145.200 54.312,145.200 54.608 C 145.200 54.904,145.605 55.272,146.100 55.427 C 146.595 55.581,147.121 55.896,147.268 56.126 C 147.415 56.356,147.852 56.590,148.238 56.647 C 148.624 56.703,149.098 57.031,149.290 57.375 C 149.482 57.719,150.001 58.000,150.443 58.000 C 150.886 58.000,151.159 58.143,151.050 58.318 C 150.942 58.493,151.742 59.058,152.827 59.573 C 153.912 60.089,154.800 60.665,154.800 60.855 C 154.800 61.045,155.070 61.200,155.400 61.200 C 155.730 61.200,156.000 61.380,156.000 61.600 C 156.000 61.820,156.228 62.000,156.506 62.000 C 156.784 62.000,157.684 62.360,158.504 62.800 C 159.325 63.240,160.190 63.600,160.425 63.600 C 160.661 63.600,161.443 64.050,162.164 64.600 C 162.886 65.150,163.694 65.600,163.961 65.600 C 164.229 65.600,164.345 65.765,164.220 65.967 C 164.095 66.170,164.535 66.454,165.197 66.599 C 165.858 66.745,166.400 67.049,166.400 67.275 C 166.400 67.501,166.670 67.582,167.000 67.455 C 167.330 67.329,167.600 67.361,167.600 67.526 C 167.600 67.973,169.847 69.219,170.134 68.932 C 170.270 68.797,170.490 68.970,170.624 69.318 C 170.758 69.666,171.392 70.066,172.033 70.207 C 172.675 70.348,173.200 70.590,173.200 70.746 C 173.200 71.014,175.459 72.495,175.690 72.378 C 175.933 72.255,178.395 73.821,178.397 74.100 C 178.399 74.265,178.694 74.400,179.053 74.400 C 179.412 74.400,180.312 74.775,181.053 75.233 C 181.794 75.691,182.400 75.927,182.400 75.758 C 182.400 75.589,182.968 75.979,183.662 76.625 C 184.356 77.271,184.818 77.612,184.690 77.383 C 184.561 77.154,184.802 76.940,185.226 76.908 C 185.739 76.869,186.081 77.183,186.246 77.842 C 186.383 78.388,186.699 78.760,186.948 78.667 C 187.196 78.575,187.344 78.264,187.275 77.976 C 187.143 77.419,243.915 20.400,244.603 20.400 C 244.825 20.400,245.244 20.021,245.533 19.558 C 245.969 18.861,245.968 18.773,245.530 19.047 C 244.550 19.658,244.124 19.517,243.438 18.356 C 242.956 17.540,242.437 17.198,241.677 17.194 C 240.835 17.189,240.731 17.103,241.200 16.800 C 241.692 16.482,241.649 16.411,240.961 16.406 C 240.500 16.403,239.707 16.040,239.200 15.600 C 238.693 15.160,238.050 14.800,237.772 14.800 C 237.494 14.800,237.207 14.665,237.133 14.500 C 237.060 14.335,235.785 13.576,234.300 12.813 C 232.815 12.050,231.600 11.285,231.600 11.113 C 231.600 10.941,231.465 10.840,231.300 10.890 C 230.844 11.026,227.200 9.105,227.200 8.729 C 227.200 8.548,226.930 8.400,226.600 8.400 C 226.270 8.400,226.000 8.248,226.000 8.063 C 226.000 7.878,225.319 7.522,224.486 7.273 C 223.653 7.023,222.580 6.455,222.102 6.010 C 221.625 5.564,221.037 5.200,220.796 5.200 C 220.233 5.200,217.042 3.494,216.867 3.100 C 216.793 2.935,216.378 2.800,215.943 2.800 C 215.442 2.800,215.258 2.629,215.442 2.332 C 215.634 2.021,215.516 1.946,215.091 2.110 C 214.740 2.245,214.395 2.202,214.326 2.014 C 214.257 1.827,213.840 1.612,213.400 1.537 C 212.960 1.461,212.506 1.276,212.391 1.123 C 211.633 0.122,195.873 -0.397,191.601 0.440 M289.313 44.728 C 288.982 44.934,290.006 46.316,292.513 49.049 C 294.541 51.259,296.516 53.502,296.902 54.034 C 300.228 58.608,301.200 60.039,301.200 60.360 C 301.200 60.565,301.345 60.793,301.523 60.867 C 301.822 60.990,304.695 65.623,306.815 69.400 C 307.913 71.356,311.107 77.755,311.806 79.400 C 312.086 80.060,312.513 81.050,312.754 81.600 C 313.433 83.149,315.186 87.941,316.046 90.600 C 317.458 94.967,317.591 95.426,318.019 97.421 C 321.069 111.627,321.006 110.809,322.011 149.333 C 322.375 163.295,322.412 169.749,322.128 169.933 C 321.614 170.265,321.160 175.600,321.646 175.600 C 321.842 175.600,322.000 179.996,322.000 185.429 C 322.000 193.632,322.099 195.356,322.600 195.857 C 323.133 196.390,323.200 196.387,323.200 195.825 C 323.200 195.252,326.843 195.193,361.500 195.204 L 399.800 195.216 399.906 160.908 C 399.975 138.280,399.866 125.443,399.583 123.200 C 399.348 121.330,399.129 119.395,399.097 118.900 C 399.066 118.405,398.907 118.000,398.745 118.000 C 398.582 118.000,398.328 117.190,398.179 116.200 C 398.031 115.210,397.764 114.400,397.588 114.400 C 397.411 114.400,396.949 113.568,396.560 112.552 C 395.858 110.713,394.140 108.541,390.900 105.395 C 389.965 104.487,389.200 103.565,389.200 103.347 C 389.200 103.128,388.578 102.705,387.818 102.407 C 387.058 102.109,386.482 101.760,386.538 101.632 C 386.639 101.400,384.288 98.981,384.100 99.124 C 383.788 99.361,383.186 99.146,383.363 98.860 C 383.478 98.673,383.084 98.270,382.486 97.963 C 381.889 97.656,381.119 97.101,380.776 96.730 C 380.433 96.358,379.670 95.932,379.079 95.784 C 378.489 95.636,378.105 95.354,378.226 95.157 C 378.348 94.961,378.161 94.800,377.811 94.800 C 377.461 94.800,377.071 94.530,376.945 94.200 C 376.818 93.870,376.368 93.600,375.945 93.600 C 375.521 93.600,375.071 93.330,374.945 93.000 C 374.818 92.670,374.464 92.400,374.157 92.400 C 373.851 92.400,373.600 92.209,373.600 91.976 C 373.600 91.743,373.420 91.664,373.200 91.800 C 372.980 91.936,372.800 91.857,372.800 91.624 C 372.800 91.391,372.530 91.200,372.200 91.200 C 371.870 91.200,371.600 91.020,371.600 90.800 C 371.600 90.580,371.352 90.400,371.049 90.400 C 370.746 90.400,370.283 90.142,370.021 89.826 C 369.759 89.510,369.016 89.135,368.369 88.993 C 367.722 88.851,367.012 88.396,366.791 87.982 C 366.569 87.568,366.154 87.319,365.869 87.429 C 365.583 87.539,365.018 87.262,364.613 86.814 C 364.208 86.366,363.571 86.000,363.199 86.000 C 362.827 86.000,362.107 85.640,361.600 85.200 C 361.093 84.760,360.425 84.400,360.115 84.400 C 359.806 84.400,359.655 84.235,359.780 84.033 C 359.905 83.830,359.420 83.536,358.704 83.379 C 357.987 83.221,357.163 82.754,356.873 82.340 C 356.583 81.925,356.184 81.686,355.987 81.808 C 355.790 81.930,355.267 81.667,354.825 81.225 C 354.382 80.782,353.567 80.307,353.013 80.168 C 352.459 80.028,352.105 79.754,352.226 79.557 C 352.348 79.361,351.981 79.200,351.411 79.200 C 350.841 79.200,350.271 78.930,350.145 78.600 C 350.018 78.270,349.677 78.000,349.386 78.000 C 349.095 78.000,348.576 77.719,348.233 77.375 C 347.889 77.032,347.259 76.725,346.832 76.692 C 346.405 76.660,346.162 76.461,346.293 76.249 C 346.431 76.026,346.242 75.975,345.845 76.127 C 345.437 76.284,345.258 76.230,345.403 75.995 C 345.537 75.778,345.367 75.600,345.024 75.600 C 344.681 75.600,344.400 75.434,344.400 75.232 C 344.400 75.029,343.858 74.745,343.197 74.599 C 342.535 74.454,342.086 74.184,342.200 74.000 C 342.314 73.816,341.865 73.546,341.203 73.401 C 340.542 73.255,340.000 72.990,340.000 72.812 C 340.000 72.633,339.591 72.384,339.092 72.259 C 338.593 72.134,337.790 71.664,337.309 71.215 C 336.827 70.767,336.180 70.400,335.871 70.400 C 335.561 70.400,334.850 70.040,334.291 69.600 C 333.731 69.160,333.077 68.800,332.837 68.800 C 332.597 68.800,332.400 68.620,332.400 68.400 C 332.400 68.180,332.064 68.000,331.654 68.000 C 331.244 68.000,330.450 67.640,329.891 67.200 C 329.331 66.760,328.677 66.400,328.437 66.400 C 328.197 66.400,328.000 66.220,328.000 66.000 C 328.000 65.780,327.730 65.600,327.400 65.600 C 327.070 65.600,326.800 65.401,326.800 65.157 C 326.800 64.914,326.562 64.806,326.271 64.917 C 325.981 65.029,325.539 64.794,325.290 64.396 C 325.042 63.998,324.290 63.551,323.619 63.404 C 322.949 63.257,322.400 62.971,322.400 62.768 C 322.400 62.566,322.152 62.400,321.849 62.400 C 321.546 62.400,321.076 62.132,320.804 61.804 C 320.532 61.477,320.150 61.307,319.955 61.428 C 319.760 61.549,319.600 61.446,319.600 61.200 C 319.600 60.954,319.435 60.855,319.232 60.980 C 319.030 61.105,318.593 60.936,318.261 60.604 C 317.929 60.272,317.473 60.000,317.248 60.000 C 317.024 60.000,316.696 59.775,316.520 59.500 C 316.130 58.890,313.864 57.600,313.182 57.600 C 312.911 57.600,312.485 57.322,312.236 56.982 C 311.988 56.642,311.395 56.335,310.920 56.299 C 310.444 56.263,310.140 56.097,310.244 55.929 C 310.348 55.761,309.975 55.509,309.416 55.368 C 308.857 55.228,308.400 54.953,308.400 54.757 C 308.400 54.560,308.059 54.400,307.643 54.400 C 307.226 54.400,306.778 54.119,306.646 53.775 C 306.514 53.431,306.223 53.262,306.000 53.400 C 305.777 53.538,305.487 53.370,305.355 53.028 C 305.224 52.685,304.982 52.487,304.819 52.588 C 304.655 52.690,304.134 52.412,303.661 51.971 C 303.187 51.530,302.800 51.288,302.800 51.433 C 302.800 51.579,302.558 51.497,302.263 51.252 C 301.968 51.007,301.612 50.921,301.473 51.061 C 301.333 51.200,301.105 51.019,300.967 50.657 C 300.828 50.296,300.477 50.000,300.186 50.000 C 299.895 50.000,299.381 49.724,299.043 49.386 C 298.705 49.048,298.377 48.773,298.314 48.774 C 297.683 48.791,296.400 48.225,296.400 47.930 C 296.400 47.722,296.252 47.644,296.071 47.756 C 295.891 47.868,295.442 47.608,295.075 47.180 C 294.647 46.679,293.900 46.400,292.991 46.400 C 292.101 46.400,291.489 46.177,291.345 45.800 C 291.218 45.470,290.879 45.200,290.591 45.200 C 290.302 45.200,290.007 45.026,289.933 44.813 C 289.860 44.600,289.581 44.562,289.313 44.728 M164.000 143.625 C 164.000 143.831,163.595 144.001,163.100 144.002 C 162.605 144.004,161.699 144.266,161.087 144.586 C 160.475 144.905,160.088 144.981,160.229 144.754 C 160.457 144.384,158.892 145.108,158.400 145.600 C 158.290 145.710,157.480 146.158,156.600 146.596 C 155.720 147.034,154.868 147.574,154.706 147.796 C 154.544 148.018,154.409 148.058,154.406 147.884 C 154.395 147.315,149.618 151.566,149.607 152.154 C 149.603 152.349,149.189 152.889,148.687 153.354 C 148.185 153.819,147.762 154.290,147.746 154.400 C 147.622 155.269,147.082 156.400,146.791 156.400 C 146.596 156.400,146.312 157.075,146.160 157.900 C 146.009 158.725,145.691 159.525,145.454 159.678 C 145.196 159.845,144.961 162.122,144.866 165.378 C 144.779 168.360,144.548 170.800,144.354 170.800 C 143.854 170.800,143.894 226.235,144.395 227.982 C 144.667 228.932,144.657 229.441,144.361 229.624 C 144.092 229.790,144.176 229.982,144.587 230.140 C 144.947 230.278,145.153 230.247,145.044 230.071 C 144.935 229.895,159.405 215.194,177.198 197.402 C 203.570 171.032,209.483 164.928,209.189 164.379 C 208.990 164.008,208.938 163.596,209.071 163.462 C 209.205 163.328,208.974 163.089,208.557 162.930 C 208.141 162.771,207.458 162.323,207.039 161.934 C 206.621 161.546,206.126 161.322,205.939 161.437 C 205.753 161.553,205.600 161.457,205.600 161.224 C 205.600 160.991,205.330 160.800,205.000 160.800 C 204.670 160.800,204.400 160.609,204.400 160.376 C 204.400 160.143,204.220 160.064,204.000 160.200 C 203.780 160.336,203.598 160.302,203.595 160.124 C 203.593 159.946,202.828 159.441,201.895 159.003 C 200.963 158.564,199.962 157.979,199.671 157.703 C 199.381 157.426,198.886 157.200,198.571 157.200 C 198.257 157.200,198.000 157.020,198.000 156.800 C 198.000 156.580,197.749 156.400,197.443 156.400 C 197.136 156.400,196.778 156.119,196.646 155.775 C 196.514 155.431,196.237 155.254,196.030 155.381 C 195.824 155.509,195.540 155.427,195.400 155.200 C 195.260 154.973,194.992 154.882,194.804 154.997 C 194.617 155.113,194.101 154.747,193.658 154.183 C 193.215 153.620,192.796 153.163,192.726 153.168 C 192.159 153.210,190.800 152.635,190.800 152.353 C 190.800 152.159,190.465 152.000,190.055 152.000 C 189.427 152.000,187.841 150.980,185.731 149.218 C 185.474 149.003,184.768 148.737,184.164 148.628 C 183.559 148.518,182.960 148.266,182.832 148.068 C 182.705 147.870,182.192 147.581,181.694 147.425 C 181.196 147.270,180.883 146.990,180.998 146.804 C 181.113 146.617,180.665 146.346,180.003 146.201 C 179.342 146.055,178.800 145.771,178.800 145.568 C 178.800 145.366,178.339 145.200,177.776 145.200 C 177.109 145.200,176.851 145.040,177.036 144.742 C 177.231 144.426,176.993 144.346,176.272 144.484 C 175.696 144.594,175.319 144.530,175.436 144.342 C 175.552 144.154,174.927 144.000,174.047 144.000 C 173.167 144.000,172.347 143.838,172.224 143.639 C 171.926 143.157,164.000 143.143,164.000 143.625 M209.433 163.547 C 209.315 163.737,209.575 164.215,210.009 164.609 C 210.484 165.038,210.800 165.134,210.800 164.849 C 210.800 164.588,210.531 164.272,210.202 164.146 C 209.874 164.019,209.704 163.755,209.826 163.558 C 209.948 163.361,209.957 163.200,209.847 163.200 C 209.737 163.200,209.551 163.356,209.433 163.547 M0.042 269.800 C 0.022 303.829,0.256 312.663,1.211 313.814 C 1.514 314.178,1.487 314.381,1.117 314.530 C 0.721 314.688,0.717 314.744,1.100 314.768 C 1.375 314.786,1.600 315.239,1.600 315.776 C 1.600 316.313,1.785 316.867,2.011 317.007 C 2.236 317.146,2.373 317.472,2.313 317.731 C 2.254 317.990,2.603 318.762,3.091 319.446 C 3.578 320.131,3.866 320.801,3.731 320.936 C 3.596 321.071,3.781 321.295,4.143 321.433 C 4.504 321.572,4.800 321.952,4.800 322.277 C 4.800 322.906,6.320 324.721,9.100 327.411 C 10.035 328.316,10.800 329.246,10.800 329.479 C 10.800 329.712,11.341 330.127,12.002 330.401 C 12.663 330.675,13.711 331.461,14.332 332.149 C 14.952 332.837,15.708 333.457,16.011 333.527 C 16.315 333.597,16.806 334.002,17.104 334.427 C 17.402 334.852,17.865 335.200,18.134 335.200 C 18.403 335.200,18.876 335.550,19.185 335.979 C 19.493 336.407,19.870 336.680,20.023 336.586 C 20.175 336.492,20.734 336.817,21.265 337.307 C 21.796 337.798,22.718 338.421,23.315 338.691 C 23.912 338.962,24.400 339.377,24.400 339.615 C 24.400 339.853,24.580 339.936,24.800 339.800 C 25.020 339.664,25.200 339.701,25.200 339.882 C 25.200 340.063,25.920 340.523,26.800 340.904 C 27.680 341.286,28.400 341.778,28.400 341.999 C 28.400 342.219,28.741 342.400,29.157 342.400 C 29.574 342.400,30.009 342.647,30.125 342.949 C 30.241 343.250,30.837 343.623,31.450 343.777 C 32.063 343.931,32.800 344.393,33.088 344.804 C 33.379 345.220,33.950 345.487,34.374 345.405 C 34.794 345.324,35.239 345.524,35.363 345.848 C 35.488 346.172,36.132 346.627,36.794 346.858 C 37.474 347.095,37.885 347.462,37.738 347.701 C 37.590 347.939,37.666 348.007,37.911 347.855 C 38.149 347.708,38.460 347.773,38.600 348.000 C 38.740 348.227,39.024 348.309,39.230 348.181 C 39.437 348.054,39.714 348.231,39.846 348.575 C 39.978 348.919,40.323 349.200,40.614 349.200 C 40.905 349.200,41.381 349.432,41.671 349.715 C 42.306 350.334,44.934 351.600,45.584 351.600 C 45.839 351.600,45.945 351.765,45.820 351.967 C 45.695 352.170,46.136 352.454,46.800 352.600 C 47.464 352.746,47.905 353.030,47.780 353.233 C 47.580 353.557,48.438 353.787,49.311 353.644 C 49.482 353.616,49.727 353.864,49.854 354.196 C 49.981 354.528,50.417 354.800,50.823 354.800 C 51.228 354.800,51.704 355.025,51.880 355.300 C 52.367 356.060,54.166 357.019,53.812 356.330 C 53.663 356.038,53.799 356.115,54.114 356.500 C 54.430 356.885,54.994 357.200,55.368 357.200 C 55.741 357.200,55.942 357.371,55.812 357.580 C 55.683 357.789,56.231 358.082,57.028 358.232 C 57.975 358.409,58.301 358.614,57.967 358.820 C 57.634 359.026,57.967 359.233,58.924 359.412 C 59.732 359.564,60.313 359.818,60.214 359.977 C 60.116 360.136,60.883 360.639,61.918 361.096 C 62.953 361.553,64.246 362.348,64.791 362.863 C 65.335 363.379,65.875 363.778,65.991 363.751 C 66.292 363.680,67.365 364.100,67.600 364.381 C 67.710 364.512,68.700 365.065,69.800 365.610 C 70.900 366.154,71.932 366.780,72.094 367.000 C 72.290 367.267,72.393 367.267,72.403 367.000 C 72.411 366.780,72.789 367.050,73.244 367.600 C 73.698 368.150,73.964 368.392,73.834 368.137 C 73.657 367.788,73.836 367.787,74.565 368.131 C 75.097 368.382,75.448 368.723,75.345 368.889 C 75.242 369.055,75.438 369.084,75.779 368.953 C 76.121 368.822,76.400 368.914,76.400 369.157 C 76.400 369.401,76.651 369.600,76.957 369.600 C 77.264 369.600,77.618 369.870,77.745 370.200 C 77.871 370.530,78.351 370.800,78.811 370.800 C 79.271 370.800,79.548 370.960,79.427 371.156 C 79.306 371.352,79.835 371.630,80.604 371.774 C 81.372 371.918,82.000 372.211,82.000 372.425 C 82.000 372.638,82.630 373.113,83.400 373.481 C 84.170 373.848,84.800 374.305,84.800 374.498 C 84.800 374.690,84.973 374.740,85.184 374.610 C 85.626 374.337,87.248 375.162,87.720 375.900 C 87.896 376.175,88.301 376.400,88.620 376.400 C 88.939 376.400,89.200 376.591,89.200 376.824 C 89.200 377.057,89.368 377.144,89.572 377.017 C 89.777 376.891,90.058 376.970,90.196 377.193 C 90.334 377.417,90.797 377.600,91.224 377.600 C 91.651 377.600,92.000 377.780,92.000 378.000 C 92.000 378.220,92.244 378.400,92.542 378.400 C 92.839 378.400,93.554 378.836,94.129 379.369 C 94.704 379.902,95.540 380.454,95.987 380.596 C 96.434 380.738,96.800 380.993,96.800 381.164 C 96.800 381.334,97.481 381.678,98.314 381.927 C 99.147 382.177,100.227 382.752,100.714 383.206 C 101.201 383.660,101.600 383.906,101.600 383.754 C 101.600 383.601,101.915 383.753,102.300 384.091 C 102.685 384.429,103.405 384.829,103.900 384.980 C 104.395 385.130,104.800 385.432,104.800 385.651 C 104.800 385.869,104.980 385.936,105.200 385.800 C 105.420 385.664,105.600 385.743,105.600 385.976 C 105.600 386.209,106.095 386.403,106.700 386.406 C 107.971 386.413,108.998 386.954,108.692 387.455 C 108.576 387.645,109.116 387.834,109.891 387.875 L 111.302 387.950 110.151 386.683 C 109.518 385.986,108.066 384.422,106.925 383.208 C 105.784 381.994,104.440 380.460,103.939 379.800 C 103.438 379.140,102.931 378.510,102.814 378.400 C 102.696 378.290,101.700 376.850,100.600 375.200 C 99.500 373.550,98.499 372.110,98.376 372.000 C 98.066 371.723,94.400 365.617,94.400 365.378 C 94.400 365.271,93.967 364.498,93.437 363.659 C 92.446 362.088,89.763 356.874,88.674 354.400 C 88.335 353.630,87.702 352.190,87.268 351.200 C 86.512 349.476,84.023 342.175,82.651 337.654 C 82.293 336.474,82.000 335.115,82.000 334.634 C 82.000 334.153,81.842 333.589,81.649 333.380 C 81.455 333.171,81.078 331.650,80.810 330.000 C 79.019 318.969,79.127 320.864,78.008 280.876 C 77.548 264.438,77.560 263.117,78.180 262.664 C 78.652 262.319,78.782 261.829,78.622 260.988 C 78.499 260.335,78.279 254.708,78.134 248.484 C 77.894 238.159,77.625 235.627,76.954 237.375 C 76.739 237.936,72.814 238.000,38.775 238.000 L 0.836 238.000 0.585 236.500 C 0.447 235.675,0.273 234.820,0.199 234.600 C 0.124 234.380,0.054 250.220,0.042 269.800 M143.355 255.000 C 143.356 257.860,143.420 258.978,143.497 257.483 C 143.574 255.989,143.574 253.649,143.496 252.283 C 143.418 250.918,143.355 252.140,143.355 255.000 M213.553 355.335 C 213.527 355.591,213.530 355.945,213.560 356.121 C 213.590 356.298,200.839 369.210,185.225 384.814 C 156.491 413.530,154.908 415.200,156.424 415.200 C 156.657 415.200,156.744 415.032,156.617 414.828 C 156.491 414.623,156.570 414.342,156.793 414.204 C 157.159 413.978,157.374 414.498,157.247 415.300 C 157.221 415.465,157.571 415.600,158.024 415.600 C 158.477 415.600,158.745 415.765,158.620 415.967 C 158.495 416.170,158.936 416.454,159.600 416.600 C 160.326 416.759,160.700 417.039,160.538 417.301 C 160.366 417.578,160.510 417.643,160.934 417.481 C 161.300 417.340,161.600 417.399,161.600 417.613 C 161.600 417.826,161.870 418.000,162.200 418.000 C 162.530 418.000,162.800 418.160,162.800 418.357 C 162.800 418.553,163.209 418.816,163.708 418.941 C 164.207 419.066,165.002 419.529,165.474 419.968 C 165.946 420.408,166.797 420.884,167.366 421.027 C 167.935 421.170,168.400 421.433,168.400 421.612 C 168.400 421.790,168.940 422.055,169.600 422.200 C 170.260 422.345,170.800 422.626,170.800 422.824 C 170.800 423.022,171.250 423.298,171.800 423.436 C 172.350 423.574,172.800 423.847,172.800 424.043 C 172.800 424.240,173.070 424.400,173.400 424.400 C 173.730 424.400,174.000 424.566,174.000 424.768 C 174.000 424.971,174.540 425.255,175.200 425.400 C 175.860 425.545,176.400 425.810,176.400 425.988 C 176.400 426.167,176.850 426.426,177.400 426.564 C 177.950 426.702,178.400 426.986,178.400 427.195 C 178.400 427.404,178.670 427.471,179.000 427.345 C 179.330 427.218,179.600 427.314,179.600 427.557 C 179.600 427.801,179.870 428.000,180.200 428.000 C 180.530 428.000,180.800 428.166,180.800 428.368 C 180.800 428.571,181.340 428.855,182.000 429.000 C 182.660 429.145,183.200 429.429,183.200 429.632 C 183.200 429.834,183.470 430.000,183.800 430.000 C 184.130 430.000,184.400 430.172,184.400 430.382 C 184.400 430.592,185.028 430.882,185.796 431.026 C 186.565 431.170,187.085 431.463,186.953 431.676 C 186.821 431.890,187.047 432.023,187.456 431.971 C 187.865 431.919,188.560 432.040,189.000 432.239 C 191.016 433.149,211.559 432.504,210.968 431.548 C 210.850 431.357,211.123 431.200,211.576 431.200 C 212.029 431.200,212.400 431.009,212.400 430.776 C 212.400 430.543,212.580 430.464,212.800 430.600 C 213.020 430.736,213.200 430.657,213.200 430.424 C 213.200 430.191,213.455 430.000,213.767 430.000 C 214.078 430.000,214.393 429.854,214.467 429.675 C 214.611 429.322,220.613 426.290,220.995 426.376 C 221.124 426.405,221.505 426.152,221.843 425.814 C 222.181 425.476,222.714 425.200,223.029 425.200 C 223.343 425.200,223.600 425.020,223.600 424.800 C 223.600 424.580,223.870 424.400,224.200 424.400 C 224.530 424.400,224.800 424.220,224.800 424.000 C 224.800 423.780,225.057 423.600,225.371 423.600 C 225.686 423.600,226.258 423.285,226.643 422.900 C 227.028 422.515,227.446 422.195,227.571 422.190 C 228.161 422.164,230.400 420.968,230.400 420.679 C 230.400 420.499,230.580 420.464,230.800 420.600 C 231.020 420.736,231.202 420.702,231.205 420.524 C 231.207 420.346,231.972 419.843,232.905 419.406 C 233.837 418.970,234.744 418.385,234.920 418.106 C 235.096 417.828,235.636 417.597,236.120 417.594 C 236.835 417.589,236.887 417.515,236.400 417.200 C 235.933 416.898,236.047 416.811,236.913 416.806 C 237.528 416.803,238.128 416.532,238.255 416.200 C 238.382 415.870,238.723 415.600,239.014 415.600 C 239.305 415.600,239.789 415.354,240.090 415.053 C 240.391 414.752,241.079 414.366,241.619 414.196 C 242.158 414.025,242.870 413.596,243.200 413.243 C 243.737 412.667,245.131 411.826,248.097 410.287 C 248.637 410.007,249.390 409.467,249.769 409.089 C 250.147 408.710,250.803 408.400,251.225 408.400 C 251.648 408.400,252.218 408.040,252.493 407.600 C 252.768 407.160,253.192 406.800,253.435 406.800 C 253.678 406.800,254.293 406.440,254.800 406.000 C 255.307 405.560,256.055 405.200,256.461 405.200 C 256.868 405.200,257.200 405.023,257.200 404.808 C 257.200 404.592,257.644 404.304,258.186 404.168 C 258.728 404.032,259.281 403.576,259.414 403.154 C 259.548 402.733,259.825 402.492,260.029 402.618 C 260.233 402.744,260.400 402.579,260.400 402.252 C 260.400 401.925,260.625 401.412,260.900 401.113 C 261.762 400.175,262.283 399.027,262.175 398.300 C 262.118 397.915,262.208 397.600,262.376 397.600 C 262.544 397.600,262.694 396.070,262.709 394.200 C 262.724 392.330,262.596 390.800,262.424 390.800 C 262.252 390.800,262.193 390.371,262.293 389.847 C 262.393 389.323,262.278 388.772,262.038 388.623 C 261.797 388.475,261.600 387.913,261.600 387.376 C 261.600 386.839,261.440 386.400,261.243 386.400 C 261.047 386.400,260.772 385.943,260.632 385.384 C 260.491 384.825,260.202 384.475,259.988 384.607 C 259.775 384.739,259.600 384.504,259.600 384.085 C 259.600 383.665,259.249 382.918,258.821 382.424 C 258.393 381.930,257.988 381.399,257.921 381.245 C 257.854 381.090,256.951 380.321,255.913 379.536 C 254.875 378.750,254.139 377.994,254.278 377.856 C 254.416 377.717,253.961 377.405,253.265 377.163 C 252.570 376.920,252.101 376.560,252.224 376.361 C 252.347 376.162,252.096 376.000,251.666 376.000 C 251.237 376.000,250.778 375.719,250.646 375.375 C 250.514 375.031,250.223 374.862,250.000 375.000 C 249.777 375.138,249.495 374.992,249.374 374.676 C 249.253 374.360,248.364 373.776,247.398 373.378 C 246.433 372.979,245.734 372.507,245.845 372.327 C 245.956 372.147,245.779 372.000,245.452 372.000 C 245.125 372.000,244.619 371.775,244.329 371.500 C 244.038 371.225,243.440 370.939,243.000 370.864 C 242.560 370.789,241.915 370.474,241.568 370.163 C 241.220 369.852,240.815 369.719,240.668 369.866 C 240.520 370.013,240.400 369.923,240.400 369.667 C 240.400 369.410,240.062 369.200,239.649 369.200 C 239.236 369.200,238.674 368.930,238.400 368.600 C 238.126 368.270,237.553 368.000,237.127 368.000 C 236.701 368.000,236.464 367.820,236.600 367.600 C 236.736 367.380,236.567 367.200,236.224 367.200 C 235.881 367.200,235.600 367.020,235.600 366.800 C 235.600 366.580,235.343 366.400,235.029 366.400 C 234.714 366.400,234.209 366.152,233.906 365.849 C 233.603 365.546,232.780 365.171,232.077 365.017 C 231.375 364.863,230.800 364.574,230.800 364.376 C 230.800 364.178,230.351 363.903,229.803 363.765 C 229.254 363.627,228.893 363.373,229.000 363.200 C 229.107 363.027,228.701 362.763,228.097 362.613 C 227.494 362.463,226.566 361.949,226.035 361.470 C 225.499 360.986,225.202 360.866,225.365 361.200 C 225.527 361.530,225.376 361.451,225.030 361.024 C 224.683 360.596,224.394 360.416,224.387 360.624 C 224.380 360.831,224.138 360.688,223.848 360.307 C 223.559 359.926,222.920 359.552,222.428 359.477 C 221.936 359.402,221.414 359.174,221.267 358.970 C 220.904 358.467,217.528 356.798,216.876 356.799 C 216.588 356.800,216.463 356.622,216.597 356.405 C 216.737 356.178,216.577 356.111,216.221 356.247 C 215.818 356.402,215.600 356.259,215.600 355.843 C 215.600 355.489,215.465 355.186,215.300 355.169 C 215.135 355.153,214.685 355.078,214.300 355.005 C 213.915 354.931,213.579 355.080,213.553 355.335 " stroke="none" fill="#dc2424" fill-rule="evenodd"></path><path id="path4" d="M243.225 17.800 C 243.226 18.363,244.261 19.665,244.654 19.597 C 244.833 19.565,245.045 19.734,245.123 19.970 C 245.202 20.207,245.026 20.400,244.732 20.400 C 243.904 20.400,187.286 77.293,187.311 78.100 C 187.331 78.740,187.513 78.866,188.264 78.764 C 188.409 78.744,188.679 78.997,188.862 79.326 C 189.046 79.654,190.322 80.470,191.698 81.138 C 194.211 82.357,196.427 83.610,196.800 84.020 C 196.992 84.232,200.431 86.078,202.297 86.971 C 202.790 87.207,203.195 87.521,203.197 87.668 C 203.199 87.816,203.740 88.055,204.400 88.200 C 205.060 88.345,205.600 88.626,205.600 88.824 C 205.600 89.022,206.050 89.298,206.600 89.436 C 207.150 89.574,207.600 89.858,207.600 90.067 C 207.600 90.276,207.765 90.345,207.968 90.220 C 208.170 90.095,208.610 90.267,208.945 90.602 C 209.490 91.148,209.599 91.138,209.987 90.506 C 210.385 89.857,210.411 89.865,210.310 90.600 C 210.238 91.125,210.431 91.402,210.872 91.405 C 211.241 91.408,211.691 91.572,211.872 91.769 C 212.064 91.980,211.952 91.987,211.600 91.787 C 211.074 91.488,211.071 91.534,211.577 92.156 C 212.115 92.820,212.237 92.766,213.438 91.333 C 214.144 90.490,227.145 77.400,242.327 62.245 C 261.037 43.570,269.860 34.499,269.706 34.098 C 269.519 33.612,269.627 33.587,270.313 33.953 C 271.630 34.658,271.893 34.451,270.817 33.556 C 269.870 32.767,269.814 32.764,269.264 33.469 C 268.748 34.129,268.716 34.132,268.934 33.500 C 269.066 33.115,268.990 32.800,268.764 32.800 C 268.538 32.800,268.464 32.620,268.600 32.400 C 268.736 32.180,268.496 32.000,268.066 32.000 C 267.637 32.000,267.182 31.730,267.055 31.400 C 266.929 31.070,266.454 30.800,266.000 30.800 C 265.546 30.800,265.071 30.530,264.945 30.200 C 264.818 29.870,264.374 29.600,263.957 29.600 C 263.541 29.600,263.200 29.432,263.200 29.227 C 263.200 29.022,262.795 28.729,262.300 28.577 C 261.805 28.424,260.626 27.782,259.680 27.150 C 258.734 26.517,257.721 26.000,257.429 26.000 C 257.137 26.000,256.674 25.730,256.400 25.400 C 256.126 25.070,255.748 24.800,255.559 24.800 C 255.370 24.800,254.209 24.156,252.979 23.369 C 251.748 22.582,250.215 21.754,249.571 21.530 C 248.927 21.305,248.400 20.959,248.400 20.761 C 248.400 20.562,248.029 20.400,247.576 20.400 C 247.123 20.400,246.863 20.222,246.997 20.005 C 247.137 19.778,246.977 19.711,246.621 19.847 C 246.278 19.979,246.000 19.876,246.000 19.619 C 246.000 19.363,245.820 19.264,245.600 19.400 C 245.380 19.536,245.200 19.457,245.200 19.224 C 245.200 18.991,244.939 18.800,244.620 18.800 C 244.301 18.800,243.856 18.485,243.632 18.100 C 243.408 17.715,243.225 17.580,243.225 17.800 M287.600 43.783 C 287.600 44.104,289.132 45.973,291.004 47.936 C 292.876 49.899,295.142 52.427,296.038 53.553 C 296.935 54.679,297.753 55.600,297.858 55.600 C 298.342 55.600,297.040 54.015,292.309 48.849 C 289.909 46.228,288.971 44.941,289.309 44.731 C 289.579 44.563,289.860 44.600,289.933 44.813 C 290.007 45.026,290.254 45.200,290.482 45.200 C 290.725 45.200,290.681 44.939,290.377 44.572 C 290.090 44.227,289.542 44.027,289.158 44.127 C 288.685 44.250,288.529 44.130,288.673 43.755 C 288.800 43.424,288.627 43.200,288.243 43.200 C 287.889 43.200,287.600 43.462,287.600 43.783 M291.298 45.700 C 291.500 46.314,293.200 46.618,293.200 46.040 C 293.200 45.812,292.930 45.729,292.600 45.855 C 292.270 45.982,292.000 45.886,292.000 45.643 C 292.000 45.399,291.805 45.200,291.567 45.200 C 291.328 45.200,291.207 45.425,291.298 45.700 M299.535 58.200 C 300.142 59.396,301.175 60.657,301.173 60.200 C 301.172 59.980,300.712 59.260,300.150 58.600 C 299.588 57.940,299.312 57.760,299.535 58.200 M301.600 60.986 C 301.600 61.405,303.206 64.000,303.465 64.000 C 303.575 64.000,303.259 63.325,302.763 62.500 C 301.658 60.662,301.600 60.587,301.600 60.986 M305.620 68.039 C 306.080 68.940,306.541 69.593,306.644 69.489 C 306.838 69.295,305.253 66.400,304.952 66.400 C 304.860 66.400,305.160 67.137,305.620 68.039 M312.867 82.820 C 313.101 83.492,313.367 83.967,313.457 83.876 C 313.656 83.678,312.901 81.600,312.631 81.600 C 312.527 81.600,312.633 82.149,312.867 82.820 M315.870 91.000 C 316.001 91.660,316.258 92.470,316.442 92.800 C 317.041 93.877,316.835 92.350,316.198 91.000 L 315.633 89.800 315.870 91.000 M317.054 95.000 C 317.474 96.903,318.048 98.046,317.756 96.400 C 317.620 95.630,317.346 94.730,317.149 94.400 C 316.914 94.008,316.881 94.216,317.054 95.000 M318.258 100.000 C 318.575 101.725,318.802 102.051,318.794 100.767 C 318.791 100.235,318.611 99.530,318.394 99.200 C 318.118 98.778,318.077 99.015,318.258 100.000 M319.462 105.800 C 319.596 106.680,319.772 107.475,319.853 107.567 C 320.156 107.910,319.929 105.768,319.581 105.000 C 319.329 104.442,319.293 104.685,319.462 105.800 M320.702 115.000 C 320.817 116.760,320.977 118.275,321.056 118.367 C 321.323 118.675,321.109 114.212,320.798 113.000 C 320.624 112.319,320.582 113.185,320.702 115.000 M321.506 139.800 C 321.606 145.960,321.821 153.250,321.983 156.000 C 322.164 159.068,322.205 156.518,322.091 149.400 C 321.988 143.020,321.774 135.730,321.614 133.200 C 321.443 130.485,321.399 133.189,321.506 139.800 M209.120 164.226 C 209.509 164.975,206.503 168.099,177.198 197.402 C 159.405 215.194,144.935 229.895,145.044 230.071 C 145.153 230.247,144.962 230.284,144.621 230.153 C 144.072 229.942,144.000 230.905,144.000 238.496 C 144.000 243.215,143.895 248.770,143.767 250.839 C 143.599 253.556,143.653 254.433,143.961 254.000 C 144.196 253.670,144.417 252.860,144.454 252.200 L 144.520 251.000 144.693 252.166 C 144.856 253.263,147.245 250.954,184.584 213.616 C 217.085 181.116,224.492 173.900,225.351 173.900 C 226.775 173.900,226.679 173.325,225.200 173.000 C 224.541 172.855,223.760 172.392,223.465 171.971 C 223.170 171.550,222.809 171.324,222.664 171.469 C 222.519 171.614,222.400 171.523,222.400 171.267 C 222.400 171.010,222.059 170.800,221.643 170.800 C 221.226 170.800,220.781 170.528,220.654 170.196 C 220.527 169.864,220.282 169.627,220.111 169.668 C 219.751 169.756,218.085 168.816,214.872 166.711 C 213.623 165.893,212.390 165.218,212.133 165.211 C 211.877 165.205,211.562 164.975,211.433 164.700 C 211.251 164.308,211.147 164.315,210.957 164.729 C 210.774 165.128,210.465 165.030,209.703 164.329 C 208.777 163.479,208.728 163.470,209.120 164.226 M321.324 172.200 C 321.326 173.520,321.401 174.012,321.490 173.293 C 321.579 172.574,321.577 171.494,321.486 170.893 C 321.395 170.292,321.322 170.880,321.324 172.200 M323.168 195.896 C 323.150 196.315,323.055 196.397,322.935 196.100 C 321.995 193.770,321.772 198.216,322.262 209.536 L 322.525 215.600 361.008 215.600 L 399.491 215.600 399.746 213.744 C 399.886 212.723,400.000 208.137,400.000 203.552 L 400.000 195.216 361.600 195.204 C 325.223 195.193,323.198 195.229,323.168 195.896 M0.109 227.000 C 0.209 232.060,0.426 236.605,0.592 237.100 L 0.893 238.000 38.703 238.000 C 73.417 238.000,76.551 237.946,76.996 237.338 C 77.404 236.780,77.460 236.890,77.357 238.038 L 77.235 239.400 77.570 238.200 C 78.008 236.634,78.101 219.091,77.670 219.357 C 77.489 219.469,77.354 219.210,77.370 218.782 C 77.400 218.017,76.751 218.002,38.664 217.902 L -0.072 217.800 0.109 227.000 M144.000 228.333 C 144.000 229.030,144.183 229.600,144.408 229.600 C 144.650 229.600,144.708 229.153,144.551 228.500 C 144.175 226.930,144.000 226.877,144.000 228.333 M322.550 240.200 C 322.551 242.620,322.616 243.558,322.696 242.285 C 322.776 241.012,322.775 239.032,322.694 237.885 C 322.614 236.738,322.549 237.780,322.550 240.200 M78.544 256.800 C 78.544 258.890,78.612 259.745,78.694 258.700 C 78.776 257.655,78.776 255.945,78.694 254.900 C 78.612 253.855,78.544 254.710,78.544 256.800 M78.100 262.688 C 77.825 262.786,77.600 263.135,77.600 263.462 C 77.600 263.967,77.698 263.959,78.248 263.410 C 78.952 262.706,78.890 262.406,78.100 262.688 M77.744 271.200 C 77.744 273.290,77.812 274.145,77.894 273.100 C 77.976 272.055,77.976 270.345,77.894 269.300 C 77.812 268.255,77.744 269.110,77.744 271.200 M78.172 284.200 C 78.172 289.260,78.229 291.275,78.299 288.677 C 78.369 286.080,78.368 281.940,78.298 279.477 C 78.228 277.015,78.171 279.140,78.172 284.200 M78.534 296.400 C 78.534 298.050,78.605 298.725,78.691 297.900 C 78.778 297.075,78.778 295.725,78.691 294.900 C 78.605 294.075,78.534 294.750,78.534 296.400 M78.823 314.433 C 78.836 315.845,78.994 317.720,79.175 318.600 C 79.388 319.639,79.431 318.798,79.296 316.200 C 79.059 311.631,78.789 310.622,78.823 314.433 M80.028 325.633 C 80.044 326.165,80.219 326.960,80.419 327.400 C 80.671 327.958,80.707 327.715,80.538 326.600 C 80.255 324.743,79.987 324.236,80.028 325.633 M81.200 332.110 C 81.200 332.683,81.387 333.268,81.616 333.410 C 81.889 333.579,81.938 333.277,81.760 332.534 C 81.392 331.001,81.200 330.856,81.200 332.110 M82.244 336.000 C 82.380 336.770,82.654 337.670,82.851 338.000 C 83.277 338.710,82.868 336.637,82.339 335.400 C 82.108 334.860,82.077 335.056,82.244 336.000 M83.256 339.600 C 83.256 339.930,83.411 340.560,83.600 341.000 C 83.817 341.504,83.944 341.578,83.944 341.200 C 83.944 340.870,83.789 340.240,83.600 339.800 C 83.383 339.296,83.256 339.222,83.256 339.600 M188.237 341.667 C 187.088 342.335,130.800 398.678,130.800 399.161 C 130.800 399.447,130.450 399.455,129.700 399.188 C 128.662 398.817,128.644 398.830,129.389 399.406 C 129.822 399.743,130.414 399.927,130.704 399.816 C 130.993 399.704,131.333 399.880,131.458 400.207 C 131.583 400.533,131.857 400.800,132.066 400.800 C 132.276 400.800,132.325 400.602,132.175 400.360 C 131.984 400.051,132.156 400.055,132.752 400.374 C 133.218 400.624,133.600 401.076,133.600 401.380 C 133.600 401.683,135.265 402.849,137.300 403.972 C 141.467 406.270,142.108 406.628,143.100 407.212 C 143.485 407.438,144.115 407.729,144.500 407.858 C 144.885 407.988,145.200 408.252,145.200 408.447 C 145.200 408.641,145.470 408.800,145.800 408.800 C 146.130 408.800,146.400 408.980,146.400 409.200 C 146.400 409.420,146.657 409.600,146.971 409.600 C 147.286 409.600,147.826 409.883,148.171 410.229 C 148.517 410.574,148.800 410.742,148.800 410.601 C 148.800 410.461,149.323 410.718,149.962 411.173 C 150.601 411.628,151.308 412.000,151.533 412.000 C 151.759 412.000,152.181 412.228,152.471 412.506 C 152.949 412.963,157.062 415.200,157.424 415.200 C 157.507 415.200,157.472 414.931,157.346 414.602 C 157.219 414.274,156.955 414.104,156.758 414.226 C 154.756 415.463,160.471 409.557,184.942 385.099 C 210.349 359.704,213.479 356.441,213.442 355.386 C 213.414 354.613,213.211 354.240,212.858 354.314 C 212.560 354.377,212.093 354.243,211.821 354.018 C 211.549 353.792,211.198 353.735,211.042 353.891 C 210.886 354.048,210.870 353.883,211.007 353.526 C 211.194 353.039,210.947 352.808,210.028 352.606 C 209.353 352.458,208.800 352.188,208.800 352.007 C 208.800 351.826,208.305 351.490,207.700 351.260 C 206.243 350.705,203.475 349.103,203.106 348.600 C 202.910 348.333,202.808 348.333,202.800 348.600 C 202.792 348.867,202.690 348.867,202.494 348.600 C 202.209 348.212,201.307 347.669,198.400 346.138 C 197.630 345.732,196.910 345.289,196.800 345.154 C 196.690 345.019,196.152 344.768,195.605 344.597 C 194.482 344.246,191.473 342.366,191.261 341.883 C 191.185 341.709,190.865 341.780,190.551 342.040 C 190.238 342.301,189.865 342.398,189.724 342.257 C 189.582 342.116,189.722 341.997,190.033 341.994 C 190.500 341.989,190.494 341.919,190.000 341.600 C 189.255 341.119,189.177 341.122,188.237 341.667 M85.429 346.400 C 85.576 346.950,85.864 347.670,86.067 348.000 C 86.325 348.417,86.357 348.295,86.171 347.600 C 86.024 347.050,85.736 346.330,85.533 346.000 C 85.275 345.583,85.243 345.705,85.429 346.400 M86.618 349.700 C 86.768 350.195,87.055 350.776,87.256 350.991 C 87.457 351.206,87.419 350.801,87.172 350.091 C 86.665 348.638,86.197 348.308,86.618 349.700 M214.171 355.619 C 214.171 356.038,214.382 356.461,214.640 356.560 C 214.937 356.674,215.035 356.454,214.906 355.964 C 214.629 354.903,214.171 354.688,214.171 355.619 M97.288 370.397 C 97.790 371.275,98.338 371.995,98.506 371.997 C 98.674 371.999,98.335 371.280,97.753 370.400 C 96.388 368.339,96.112 368.337,97.288 370.397 M99.467 373.531 C 99.870 374.263,100.454 375.073,100.765 375.331 C 101.525 375.961,100.778 374.620,99.578 373.200 L 98.733 372.200 99.467 373.531 M101.882 377.100 C 102.267 377.705,102.682 378.290,102.805 378.400 C 102.927 378.510,103.438 379.140,103.939 379.800 C 104.440 380.460,105.784 381.994,106.925 383.208 C 108.066 384.422,109.540 386.022,110.200 386.762 L 111.400 388.108 110.252 387.834 C 109.620 387.684,108.842 387.299,108.523 386.980 C 107.885 386.342,107.200 386.213,107.200 386.732 C 107.200 386.914,108.100 387.485,109.200 388.000 C 110.300 388.515,111.200 389.086,111.200 389.268 C 111.200 389.703,112.292 389.698,112.562 389.261 C 112.677 389.075,111.023 387.046,108.886 384.752 C 106.749 382.457,104.213 379.550,103.251 378.290 C 101.396 375.860,100.718 375.271,101.882 377.100 " stroke="none" fill="#cc1c24" fill-rule="evenodd"></path></g></svg>